<svg viewBox="0 0 586 585">
                                              <g id="Group_540" data-name="Group 540"
                                                  transform="translate(-136 -1604)">
                                                  <g id="Ellipse_10" data-name="Ellipse 10"
                                                      transform="translate(136 1609)" fill="none" stroke="#0cc"
                                                      stroke-width="1" opacity="0.5">
                                                      <circle cx="288.5" cy="288.5" r="288.5" stroke="none" />
                                                      <circle cx="288.5" cy="288.5" r="288" fill="none" />
                                                  </g>
                                                  <line id="Line_38" data-name="Line 38" y1="182" x2="78"
                                                      transform="translate(336.5 1934.5)" fill="none" stroke="#0cc"
                                                      stroke-width="1" opacity="0.5" />
                                                  <g id="Ellipse_11" data-name="Ellipse 11"
                                                      transform="translate(286 2102)" fill="#2b0356" stroke="#0cc"
                                                      stroke-width="1">
                                                      <circle cx="35" cy="35" r="35" stroke="none" />
                                                      <circle cx="35" cy="35" r="34.5" fill="none" />
                                                  </g>
                                                  <path id="qr-code_1_" data-name="qr-code (1)"
                                                      d="M-.262,2.55a.879.879,0,0,1-.879.879A.879.879,0,0,1-2.02,2.55V-1.141a.879.879,0,0,1,.879-.879H2.55a.879.879,0,0,1,.879.879.879.879,0,0,1-.879.879H-.262ZM11.867,21.418a.879.879,0,0,1,0-1.758h.762a.879.879,0,1,1,0,1.758ZM12.512,9.7a.879.879,0,1,1-1.758,0V8.937a.879.879,0,0,1,1.758,0ZM17.9,19.543a.879.879,0,0,1,0-1.758h.762a.879.879,0,0,1,0,1.758ZM-.232,13.859h4.09a.869.869,0,0,0-.018.176v2.637a.879.879,0,1,0,1.758,0V14.035a.869.869,0,0,0-.018-.176h7.752v1H8.7a.879.879,0,1,0,0,1.758h5.508a.879.879,0,0,0,.879-.879V13.859h3.281v2.578a.879.879,0,1,0,1.758,0V13.859h6.064a.879.879,0,0,0,0-1.758H22.18V10.4h.879a.879.879,0,1,0,0-1.758H18.664a.879.879,0,0,0,0,1.758h1.758v1.7H15.09V9.816a.879.879,0,1,0-1.758,0V12.1H-.232a.879.879,0,0,0-.879.879.879.879,0,0,0,.879.879ZM14.973,3.078a.879.879,0,1,1,1.758,0V7.707a.879.879,0,1,1-1.758,0Zm-5.215.352H11.75V3.078a.879.879,0,1,1,1.758,0v2.93a.879.879,0,1,1-1.758,0v-.82H9.758V5.6A.879.879,0,0,1,8,5.6V3.078a.879.879,0,0,1,1.758,0ZM2.726,10.343a.879.879,0,1,1,0-1.758h6.5a.879.879,0,1,1,0,1.758ZM21.887,22v.879a.879.879,0,1,0,1.758,0V17.609a.879.879,0,0,0-1.758,0v2.637h-2.93a.879.879,0,0,0,0,1.758Zm-8.965,1.758h2.637a.879.879,0,0,0,.879-.879V18.371a.879.879,0,1,0-1.758,0V22H12.922a.879.879,0,1,0,0,1.758ZM8.059,18.429a.879.879,0,0,1,1.758,0v2.578a.879.879,0,0,1-1.758,0Zm-5.332-.117H6.418a.879.879,0,0,1,.879.879v3.691a.879.879,0,0,1-.879.879H2.727a.879.879,0,0,1-.879-.879V19.191a.879.879,0,0,1,.879-.879ZM5.539,20.07H3.605V22H5.539Zm14-17.871h3.691a.879.879,0,0,1,.879.879V6.769a.879.879,0,0,1-.879.879H19.543a.879.879,0,0,1-.879-.879V3.078A.879.879,0,0,1,19.543,2.2Zm2.812,1.758H20.422V5.89h1.934ZM2.727,2.2a.879.879,0,0,0-.879.879V6.769a.879.879,0,0,0,.879.879H6.418A.879.879,0,0,0,7.3,6.769V3.078A.879.879,0,0,0,6.418,2.2ZM5.539,3.957V5.89H3.605V3.957ZM26.223,23.41a.879.879,0,1,1,1.758,0V27.1a.879.879,0,0,1-.879.879H23.41a.879.879,0,1,1,0-1.758h2.812Zm-28.242,0V27.1a.879.879,0,0,0,.879.879H2.551a.879.879,0,1,0,0-1.758H-.262V23.41a.879.879,0,0,0-.879-.879.879.879,0,0,0-.879.879Zm30-20.859V-1.141A.879.879,0,0,0,27.1-2.02H23.41a.879.879,0,0,0-.879.879.879.879,0,0,0,.879.879h2.812V2.55a.879.879,0,0,0,1.758,0Zm0,0"
                                                      transform="translate(308.02 2124.02)" fill="#0cc"
                                                      fill-rule="evenodd" />
                                                  <circle id="Ellipse_20" data-name="Ellipse 20" cx="8.5" cy="8.5"
                                                      r="8.5" transform="translate(705 1900)" fill="#0cc" />
                                                  <circle id="Ellipse_21" data-name="Ellipse 21" cx="8.5" cy="8.5"
                                                      r="8.5" transform="translate(146 1787)" fill="#0cc" />
                                                  <circle id="Ellipse_24" data-name="Ellipse 24" cx="8.5" cy="8.5"
                                                      r="8.5" transform="translate(398 2172)" fill="#0cc" />
                                                  <circle id="Ellipse_25" data-name="Ellipse 25" cx="8.5" cy="8.5"
                                                      r="8.5" transform="translate(373 1604)" fill="#0cc" />
                                                  <g id="Ellipse_23" data-name="Ellipse 23"
                                                      transform="translate(278 1753)" fill="#2b0356" stroke="#0cc"
                                                      stroke-width="1">
                                                      <circle cx="14" cy="14" r="14" stroke="none" />
                                                      <circle cx="14" cy="14" r="13.5" fill="none" />
                                                  </g>
                                                  <g id="lightbulb"
                                                      transform="matrix(0.914, -0.407, 0.407, 0.914, 566.418, 1797.403)"
                                                      opacity="0.51">
                                                      <g id="Group_31" data-name="Group 31"
                                                          transform="translate(35.966)">
                                                          <g id="Group_30" data-name="Group 30"
                                                              transform="translate(0)">
                                                              <path id="Path_190" data-name="Path 190"
                                                                  d="M116.845,93.2a11.533,11.533,0,0,0-7.622,20.173c1.823,1.823,1.657,5.716,1.616,5.758a.686.686,0,0,0,.207.539.764.764,0,0,0,.5.207h10.563a.686.686,0,0,0,.5-.207.788.788,0,0,0,.207-.539c0-.041-.207-3.935,1.616-5.758l.124-.124a11.5,11.5,0,0,0-7.7-20.049Zm6.628,19.1c-.041.041-.124.124-.124.166-1.616,1.74-1.905,4.6-1.947,5.965h-9.155c-.041-1.367-.331-4.349-2.071-6.131a10.087,10.087,0,1,1,13.3,0Z"
                                                                  transform="translate(-98.146 -83.548)"
                                                                  fill="#0cc" />
                                                              <path id="Path_191" data-name="Path 191"
                                                                  d="M210.033,121.6a.7.7,0,1,0,0,1.408,7.54,7.54,0,0,1,7.539,7.539.7.7,0,1,0,1.408,0A8.91,8.91,0,0,0,210.033,121.6Z"
                                                                  transform="translate(-191.376 -109.007)"
                                                                  fill="#0cc" />
                                                              <path id="Path_192" data-name="Path 192"
                                                                  d="M165.865,358.4h-9.2a1.74,1.74,0,1,0,0,3.48h9.155a1.787,1.787,0,0,0,1.781-1.74A1.75,1.75,0,0,0,165.865,358.4Zm0,2.03h-9.2a.327.327,0,0,1-.331-.331.3.3,0,0,1,.331-.331h9.155a.327.327,0,0,1,.331.331A.3.3,0,0,1,165.865,360.43Z"
                                                                  transform="translate(-142.609 -321.284)"
                                                                  fill="#0cc" />
                                                              <path id="Path_193" data-name="Path 193"
                                                                  d="M176.331,398.8h-6.462a1.74,1.74,0,1,0,0,3.48h6.462a1.75,1.75,0,0,0,1.74-1.74A1.724,1.724,0,0,0,176.331,398.8Zm0,2.03h-6.462a.327.327,0,0,1-.331-.331.3.3,0,0,1,.331-.331h6.462a.331.331,0,1,1,0,.663Z"
                                                                  transform="translate(-154.442 -357.501)"
                                                                  fill="#0cc" />
                                                              <path id="Path_194" data-name="Path 194"
                                                                  d="M210.033,6.214a.7.7,0,0,0,.7-.7V.7a.7.7,0,0,0-1.408,0V5.509A.726.726,0,0,0,210.033,6.214Z"
                                                                  transform="translate(-191.376)" fill="#0cc" />
                                                              <path id="Path_195" data-name="Path 195"
                                                                  d="M296.882,33.246a.668.668,0,0,0-.953.166l-2.651,3.977a.682.682,0,0,0,.166.994.668.668,0,0,0,.373.124.661.661,0,0,0,.58-.331l2.651-3.977A.642.642,0,0,0,296.882,33.246Z"
                                                                  transform="translate(-266.501 -29.684)"
                                                                  fill="#0cc" />
                                                              <path id="Path_196" data-name="Path 196"
                                                                  d="M106.341,36.366a.668.668,0,0,0,.373-.124.726.726,0,0,0,.207-.994l-2.568-4.018a.718.718,0,0,0-1.2.787l2.568,4.018A.687.687,0,0,0,106.341,36.366Z"
                                                                  transform="translate(-96.093 -27.709)"
                                                                  fill="#0cc" />
                                                              <path id="Path_197" data-name="Path 197"
                                                                  d="M41.2,105.646l-4.184-2.278a.729.729,0,0,0-.953.29.661.661,0,0,0,.29.953l4.184,2.278a.975.975,0,0,0,.331.083.683.683,0,0,0,.621-.373A.729.729,0,0,0,41.2,105.646Z"
                                                                  transform="translate(-35.966 -92.597)"
                                                                  fill="#0cc" />
                                                              <path id="Path_198" data-name="Path 198"
                                                                  d="M347.764,103.657a.729.729,0,0,0-.953-.29l-4.225,2.278a.729.729,0,0,0-.29.953.683.683,0,0,0,.621.373.78.78,0,0,0,.331-.083l4.225-2.278A.729.729,0,0,0,347.764,103.657Z"
                                                                  transform="translate(-310.508 -92.597)"
                                                                  fill="#0cc" />
                                                          </g>
                                                      </g>
                                                  </g>
                                                  <g id="surface1" transform="translate(255 1663.9)" opacity="0.5">
                                                      <path id="Path_201" data-name="Path 201"
                                                          d="M34.959,11.151v-.032c-.018-.395-.03-.813-.037-1.277a4.356,4.356,0,0,0-4.1-4.267A16.9,16.9,0,0,1,19.315.725L19.288.7a2.63,2.63,0,0,0-3.575,0l-.027.025a16.905,16.905,0,0,1-11.5,4.849A4.356,4.356,0,0,0,.08,9.842c-.007.462-.019.879-.037,1.277l0,.074c-.092,4.819-.206,10.816,1.8,16.259a20.7,20.7,0,0,0,4.966,7.734,25.975,25.975,0,0,0,9.717,5.748,3.01,3.01,0,0,0,.4.108,2.941,2.941,0,0,0,1.156,0,3.019,3.019,0,0,0,.4-.109,25.993,25.993,0,0,0,9.707-5.751,20.727,20.727,0,0,0,4.966-7.736C35.165,21.987,35.051,15.979,34.959,11.151ZM30.888,26.612c-2.116,5.737-6.436,9.677-13.205,12.045a.605.605,0,0,1-.077.021.541.541,0,0,1-.212,0,.6.6,0,0,1-.076-.02c-6.777-2.363-11.1-6.3-13.214-12.039C2.255,21.6,2.36,16.1,2.453,11.239v-.027c.019-.417.031-.855.038-1.335A1.936,1.936,0,0,1,4.316,7.982,21.16,21.16,0,0,0,11.5,6.4,18.791,18.791,0,0,0,17.351,2.47a.222.222,0,0,1,.3,0A18.8,18.8,0,0,0,23.5,6.4a21.161,21.161,0,0,0,7.183,1.58,1.936,1.936,0,0,1,1.824,1.9c.007.483.02.92.039,1.335C32.641,16.075,32.743,21.584,30.888,26.612Zm0,0"
                                                          transform="translate(0)" fill="#0cc" />
                                                      <path id="Path_202" data-name="Path 202"
                                                          d="M100.641,128.41a10.243,10.243,0,1,0,10.243,10.243A10.255,10.255,0,0,0,100.641,128.41Zm0,18.074a7.831,7.831,0,1,1,7.831-7.831A7.84,7.84,0,0,1,100.641,146.484Zm0,0"
                                                          transform="translate(-83.141 -118.103)" fill="#0cc" />
                                                      <path id="Path_203" data-name="Path 203"
                                                          d="M161.78,212.345l-4.758,4.758-1.291-1.291a1.206,1.206,0,0,0-1.706,1.705l2.144,2.144a1.206,1.206,0,0,0,1.705,0l5.611-5.611a1.206,1.206,0,0,0-1.706-1.705Zm0,0"
                                                          transform="translate(-141.336 -194.974)" fill="#0cc" />
                                                  </g>
                                              </g>
                                          </svg>